<?xml version="1.0" encoding="utf-8"?>
<!-- Generator: Adobe Illustrator 15.0.0, SVG Export Plug-In  -->
<!DOCTYPE svg PUBLIC "-//W3C//DTD SVG 1.1//EN" "http://www.w3.org/Graphics/SVG/1.1/DTD/svg11.dtd" [
	<!ENTITY ns_flows "http://ns.adobe.com/Flows/1.0/">
]>
<svg version="1.1"
	 xmlns="http://www.w3.org/2000/svg" xmlns:xlink="http://www.w3.org/1999/xlink" xmlns:a="http://ns.adobe.com/AdobeSVGViewerExtensions/3.0/"
	 x="0px" y="0px" width="800px" height="600px" viewBox="-75.25 -232.599 800 600"
	 overflow="visible" enable-background="new -75.25 -232.599 800 600" xml:space="preserve">
<defs>
</defs>
<path fill="#FFFFFF" d="M208.75,7.25l-0.5,3l-47.5,147c-1.5,4.168-4.168,6.25-8,6.25h-1c-4,0-6.586-2.082-7.75-6.25l-40.25-129
	l-40,129C63.082,159.417,62.164,161,61,162c-1.168,1-2.836,1.5-5,1.5h-0.75c-3.668,0-6.086-2.082-7.25-6.25l-47.5-147
	C0.164,8.918,0,7.918,0,7.25C0,3.75,2,1.5,6,0.5C7.332,0.168,8.332,0,9,0c3,0,5.082,1.836,6.25,5.5l41.25,128l39-127.25
	C96.664,2.086,99.5,0,104,0h1c4.164,0,6.914,2.086,8.25,6.25l39,127L193.5,5.5c1.164-3.664,3.25-5.5,6.25-5.5
	c0.664,0,1.664,0.168,3,0.5C206.75,1.168,208.75,3.418,208.75,7.25z"/>
<path fill="#FFFFFF" d="M355.247,156.25c0,2.836-1.586,5-4.75,6.5c-1.168,0.5-2.418,0.75-3.75,0.75c-2.836,0-5-1.664-6.5-5
	l-15.75-37.25h-80.5l-15.5,37.25c-1.336,3.336-3.5,5-6.5,5c-1.168,0-2.418-0.25-3.75-0.75c-3.168-1.5-4.75-3.664-4.75-6.5
	c0-1,0.25-2.25,0.75-3.75l61-146.5c1.664-4,4.582-6,8.75-6h0.75c4.164,0,6.914,2,8.25,6l61.5,146.5
	C354.997,154,355.247,155.25,355.247,156.25z M250.247,105.75h67.75l-34-81.25L250.247,105.75z"/>
<path fill="#FFFFFF" d="M388.12,153.875c-7.418-6.414-11.625-16.375-12.625-29.875c-0.168-2.5,0.457-4.457,1.875-5.875
	c1.414-1.414,3.375-2.125,5.875-2.125c4.664,0,7.25,2.5,7.75,7.5c0.664,9.168,3.25,15.543,7.75,19.125
	c4.5,3.586,12,5.375,22.5,5.375h36c11.5,0,19.457-2.207,23.875-6.625c4.414-4.414,6.625-12.289,6.625-23.625
	c0-11.5-2.25-19.5-6.75-24S468.577,87,457.245,87h-33.25c-15,0-26.043-3.539-33.125-10.625
	c-7.086-7.081-10.625-18.039-10.625-32.875c0-15,3.539-26,10.625-33c7.082-7,18.039-10.5,32.875-10.5h33.5c13.832,0,24.25,3,31.25,9
	s10.914,15.336,11.75,28c0.164,2.5-0.418,4.461-1.75,5.875c-1.336,1.418-3.25,2.125-5.75,2.125c-2.336,0-4.168-0.664-5.5-2
	c-1.336-1.332-2.168-3.25-2.5-5.75c-0.668-8-3.043-13.625-7.125-16.875c-4.086-3.25-10.875-4.875-20.375-4.875h-33.5
	c-10.668,0-18,2-22,6s-6,11.336-6,22c0,10.5,2.039,17.793,6.125,21.875c4.082,4.086,11.457,6.125,22.125,6.125h33.25
	c15.832,0,27.457,3.748,34.875,11.248c7.414,7.5,11.125,19.168,11.125,35c0,15.668-3.75,27.211-11.25,34.625
	c-7.5,7.418-19.086,11.125-34.75,11.125h-36C406.577,163.5,395.534,160.292,388.12,153.875z"/>
<path fill="#FFFFFF" d="M646.867,11.25c7.582,7.5,11.375,18.586,11.375,33.25V52c0,14.5-3.793,25.542-11.375,33.125
	C639.281,92.71,628.242,96.5,613.742,96.5h-50.75v59.25c0,5.168-2.586,7.75-7.75,7.75c-5.168,0-7.75-2.582-7.75-7.75v-148
	c0-5.164,2.582-7.75,7.75-7.75h58.5C628.242,0,639.281,3.75,646.867,11.25z M642.742,44.5c0-10.164-2.293-17.539-6.875-22.125
	c-4.586-4.582-11.961-6.875-22.125-6.875h-50.75V81h50.75c10.164,0,17.539-2.289,22.125-6.875
	c4.582-4.581,6.875-11.957,6.875-22.125V44.5z"/>
</svg>
